# xmcd CD database file
#
# Track frame offsets:
#	187
#	16130
#	31867
#	47617
#	63115
#	74695
#	87322
#	99280
#	111922
#	123950
#	139367
#	150152
#	160877
#	173182
#	187477
#	200540
#	212535
#	226352
#	236850
#	254007
#
# Disc length: 3544 seconds
#
# Revision: 0
# Processed by: cddbd v1.5.2PL0 Copyright (c) Steve Scherf et al.
# Submitted via: CD2WAV32(JP) R3.22
#
DISCID=180dd614
DTITLE=Alfred Hause Tango Orchestra - Blauer Himmel
DYEAR=1990
DGENRE=Tango
TTITLE0=Pearlfisher
TTITLE1=Blauer Himmel
TTITLE2=Jalousie
TTITLE3=Tango Nocturno
TTITLE4=Violetta
TTITLE5=Ich kusse Ihre Hand, Madame
TTITLE6=Eine Nacht in Monte Carlo
TTITLE7=Tango of Roses
TTITLE8=In einer kleinen Konditorei
TTITLE9=Tango du Reve
TTITLE10=Orchids in the Moonlight
TTITLE11=Un violin dans la nuit
TTITLE12=Blue Tango
TTITLE13=Ole Guapa
TTITLE14=A garden in Italy
TTITLE15=Herunado's Hideaway
TTITLE16=La violetera
TTITLE17=Tanguera
TTITLE18=Schwarze Augen
TTITLE19=La Cumparsita
EXTD=
EXTT0=
EXTT1=
EXTT2=
EXTT3=
EXTT4=
EXTT5=
EXTT6=
EXTT7=
EXTT8=
EXTT9=
EXTT10=
EXTT11=
EXTT12=
EXTT13=
EXTT14=
EXTT15=
EXTT16=
EXTT17=
EXTT18=
EXTT19=
PLAYORDER=
